<svg width="20" height="20" viewBox="0 0 20 20" fill="none" xmlns="http://www.w3.org/2000/svg">
<path id="Vector" d="M14.6787 12.929C15.8892 11.2772 16.4314 9.22925 16.1968 7.19486C15.9621 5.16048 14.968 3.2897 13.4133 1.9568C11.8586 0.6239 9.85792 -0.0728188 7.81157 0.00603073C5.76522 0.0848803 3.82409 0.933483 2.37655 2.38206C0.929004 3.83065 0.0817902 5.77238 0.00440496 7.81878C-0.0729803 9.86519 0.62517 11.8654 1.95918 13.4191C3.29319 14.9729 5.16468 15.9657 7.19923 16.1988C9.23379 16.432 11.2814 15.8884 12.9323 14.6767H12.9311C12.9686 14.7267 13.0086 14.7742 13.0536 14.8205L17.8666 19.6335C18.101 19.868 18.419 19.9999 18.7506 20C19.0822 20.0001 19.4003 19.8685 19.6349 19.6341C19.8694 19.3997 20.0013 19.0817 20.0014 18.7501C20.0015 18.4184 19.8699 18.1004 19.6355 17.8658L14.8225 13.0528C14.7778 13.0075 14.7297 12.9657 14.6787 12.9278V12.929ZM15.0013 8.12352C15.0013 9.02645 14.8234 9.92054 14.4779 10.7547C14.1323 11.5889 13.6259 12.3469 12.9874 12.9854C12.3489 13.6239 11.591 14.1303 10.7568 14.4759C9.92258 14.8214 9.02849 14.9992 8.12556 14.9992C7.22263 14.9992 6.32854 14.8214 5.49434 14.4759C4.66014 14.1303 3.90216 13.6239 3.2637 12.9854C2.62523 12.3469 2.11877 11.5889 1.77323 10.7547C1.42769 9.92054 1.24985 9.02645 1.24985 8.12352C1.24985 6.29997 1.97425 4.55111 3.2637 3.26166C4.55314 1.97222 6.30201 1.24781 8.12556 1.24781C9.94911 1.24781 11.698 1.97222 12.9874 3.26166C14.2769 4.55111 15.0013 6.29997 15.0013 8.12352Z" fill="#363636"/>
</svg>
