<svg width="20" height="20" viewBox="0 0 20 20" fill="none" xmlns="http://www.w3.org/2000/svg">
<g id="Union">
<mask id="path-1-inside-1_9_28" fill="white">
<path fill-rule="evenodd" clip-rule="evenodd" d="M6.42717 17C6.42717 18.6569 7.77032 20 9.42717 20H10.57C12.2269 20 13.57 18.6569 13.57 17V13.5714H16.9986C18.6555 13.5714 19.9986 12.2283 19.9986 10.5714V9.42857C19.9986 7.77172 18.6555 6.42857 16.9986 6.42857H13.57V3C13.57 1.34315 12.2269 0 10.57 0H9.42717C7.77031 0 6.42717 1.34315 6.42717 3V6.42857H2.9986C1.34174 6.42857 -0.00140381 7.77172 -0.00140381 9.42857V10.5714C-0.00140381 12.2283 1.34174 13.5714 2.9986 13.5714H6.42717V17Z"/>
</mask>
<path d="M13.57 13.5714V12.2714H12.27V13.5714H13.57ZM13.57 6.42857H12.27V7.72857H13.57V6.42857ZM6.42717 6.42857V7.72857H7.72717V6.42857H6.42717ZM6.42717 13.5714H7.72717V12.2714H6.42717V13.5714ZM9.42717 18.7C8.48828 18.7 7.72717 17.9389 7.72717 17H5.12717C5.12717 19.3748 7.05235 21.3 9.42717 21.3V18.7ZM10.57 18.7H9.42717V21.3H10.57V18.7ZM12.27 17C12.27 17.9389 11.5089 18.7 10.57 18.7V21.3C12.9448 21.3 14.87 19.3748 14.87 17H12.27ZM12.27 13.5714V17H14.87V13.5714H12.27ZM16.9986 12.2714H13.57V14.8714H16.9986V12.2714ZM18.6986 10.5714C18.6986 11.5103 17.9375 12.2714 16.9986 12.2714V14.8714C19.3734 14.8714 21.2986 12.9462 21.2986 10.5714H18.6986ZM18.6986 9.42857V10.5714H21.2986V9.42857H18.6986ZM16.9986 7.72857C17.9375 7.72857 18.6986 8.48969 18.6986 9.42857H21.2986C21.2986 7.05375 19.3734 5.12857 16.9986 5.12857V7.72857ZM13.57 7.72857H16.9986V5.12857H13.57V7.72857ZM12.27 3V6.42857H14.87V3H12.27ZM10.57 1.3C11.5089 1.3 12.27 2.06112 12.27 3H14.87C14.87 0.625175 12.9448 -1.3 10.57 -1.3V1.3ZM9.42717 1.3H10.57V-1.3H9.42717V1.3ZM7.72717 3C7.72717 2.06112 8.48828 1.3 9.42717 1.3V-1.3C7.05234 -1.3 5.12717 0.625175 5.12717 3H7.72717ZM7.72717 6.42857V3H5.12717V6.42857H7.72717ZM2.9986 7.72857H6.42717V5.12857H2.9986V7.72857ZM1.2986 9.42857C1.2986 8.48969 2.05971 7.72857 2.9986 7.72857V5.12857C0.623771 5.12857 -1.3014 7.05375 -1.3014 9.42857H1.2986ZM1.2986 10.5714V9.42857H-1.3014V10.5714H1.2986ZM2.9986 12.2714C2.05971 12.2714 1.2986 11.5103 1.2986 10.5714H-1.3014C-1.3014 12.9463 0.623772 14.8714 2.9986 14.8714V12.2714ZM6.42717 12.2714H2.9986V14.8714H6.42717V12.2714ZM7.72717 17V13.5714H5.12717V17H7.72717Z" fill="#363636" mask="url(#path-1-inside-1_9_28)"/>
</g>
</svg>
