<svg width="9" height="16" viewBox="0 0 9 16" fill="none" xmlns="http://www.w3.org/2000/svg">
<path d="M0 7.76027C0.00456621 7.60046 0.0365297 7.45434 0.0958904 7.32192C0.155251 7.1895 0.246575 7.06164 0.369863 6.93836L7.23288 0.294521C7.42922 0.0981735 7.67123 0 7.9589 0C8.15069 0 8.3242 0.0456621 8.47945 0.136986C8.63927 0.228311 8.76484 0.351598 8.85616 0.506849C8.95205 0.6621 9 0.835616 9 1.0274C9 1.3105 8.89269 1.55936 8.67808 1.77397L2.4726 7.75342L8.67808 13.7397C8.89269 13.9589 9 14.2078 9 14.4863C9 14.6826 8.95205 14.8584 8.85616 15.0137C8.76484 15.169 8.63927 15.2922 8.47945 15.3836C8.3242 15.4795 8.15069 15.5274 7.9589 15.5274C7.67123 15.5274 7.42922 15.4269 7.23288 15.226L0.369863 8.58219C0.242009 8.4589 0.148402 8.33105 0.0890411 8.19863C0.0296804 8.06164 0 7.91552 0 7.76027Z" fill="#8B8B8B"/>
</svg>
