<svg width="16" height="16" viewBox="0 0 16 16" fill="none" xmlns="http://www.w3.org/2000/svg">
<path d="M15.0425 4.05791C14.5694 2.72309 13.4204 1.74308 12.1025 1.54033C10.4297 1.28688 9.0611 2.28377 8.33455 2.97653C7.608 2.28377 6.23938 1.28688 4.56661 1.54033C3.24868 1.74308 2.09971 2.73998 1.62661 4.05791C1.11971 5.49412 1.47454 7.06551 2.58971 8.40033C3.6711 9.70137 4.88765 10.9517 6.07041 12.1514C6.78007 12.8779 7.50662 13.6214 8.19938 14.3648L8.31765 14.5L8.43593 14.3648C9.12869 13.6214 9.87214 12.861 10.5818 12.1345C11.7646 10.9348 12.9642 9.70137 14.0625 8.40033C15.1946 7.06551 15.5325 5.47723 15.0425 4.05791ZM13.809 8.18068C12.7277 9.46482 11.528 10.7152 10.3452 11.8979C9.66938 12.5738 8.97662 13.2834 8.31765 13.9931C7.65869 13.2834 6.96593 12.5738 6.30696 11.8979C5.1411 10.6983 3.92454 9.46482 2.84316 8.18068C1.81247 6.94723 1.47454 5.47723 1.93075 4.15929C2.35316 2.94274 3.40075 2.04722 4.60041 1.86136C4.76937 1.82757 4.92144 1.82757 5.09041 1.82757C6.49282 1.82757 7.62489 2.73998 8.19938 3.31447L8.31765 3.43274L8.43593 3.31447C9.0949 2.6555 10.4128 1.60791 12.0349 1.86136C13.2346 2.04722 14.2821 2.94274 14.7046 4.15929C15.1777 5.47723 14.8566 6.94723 13.809 8.18068Z" stroke="#8B8B8B" stroke-width="1.3"/>
</svg>
