<svg width="11" height="14" viewBox="0 0 11 14" fill="none" xmlns="http://www.w3.org/2000/svg">
<g id="Iconly/Bold/Notification">
<g id="Notification">
<path id="Vector" d="M4.18206 12.0595C4.50553 11.9855 6.47659 11.9855 6.80006 12.0595C7.07659 12.1286 7.37563 12.2901 7.37563 12.6426C7.35955 12.9782 7.17756 13.2757 6.92611 13.4646C6.60006 13.7396 6.21743 13.9137 5.81743 13.9765C5.59621 14.0075 5.37884 14.0082 5.16534 13.9765C4.76469 13.9137 4.38206 13.7396 4.05666 13.4639C3.80457 13.2757 3.62257 12.9782 3.6065 12.6426C3.6065 12.2901 3.90553 12.1286 4.18206 12.0595ZM5.52926 0C6.87524 0 8.25016 0.690913 9.06688 1.83727C9.59678 2.57541 9.83987 3.31286 9.83987 4.45921V4.75743C9.83987 5.63658 10.0547 6.15477 10.5273 6.75192C10.8855 7.19184 11 7.75656 11 8.36922C11 8.98117 10.8141 9.5621 10.4418 10.0338C9.95434 10.5992 9.26688 10.9601 8.56527 11.0229C7.54855 11.1167 6.53119 11.1956 5.50032 11.1956C4.46881 11.1956 3.45209 11.1484 2.43537 11.0229C1.73312 10.9601 1.04566 10.5992 0.558842 10.0338C0.186495 9.5621 0 8.98117 0 8.36922C0 7.75656 0.115113 7.19184 0.472669 6.75192C0.960129 6.15477 1.16077 5.63658 1.16077 4.75743V4.45921C1.16077 3.28184 1.43215 2.51196 1.991 1.7583C2.82187 0.659188 4.1537 0 5.47138 0H5.52926Z" fill="#5E4DB0"/>
</g>
</g>
</svg>
