<svg width="42" height="42" viewBox="0 0 42 42" fill="none" xmlns="http://www.w3.org/2000/svg">
<circle cx="20.5625" cy="20.9688" r="20.5625" fill="#00415E"/>
<path d="M10.1071 32.7187C9.92821 32.7184 9.75133 32.6809 9.58772 32.6085C9.4241 32.5361 9.27734 32.4305 9.15676 32.2983C9.034 32.1672 8.94032 32.0116 8.88188 31.8418C8.82343 31.672 8.80154 31.4917 8.81762 31.3128L9.13355 27.838L23.728 13.2447L28.2889 17.8056L13.6983 32.3976L10.2245 32.7136C10.1854 32.7172 10.1463 32.7189 10.1071 32.7187ZM29.1993 16.8937L24.6397 12.3328L27.3747 9.59704C27.4944 9.47712 27.6366 9.38198 27.7932 9.31707C27.9497 9.25216 28.1175 9.21875 28.287 9.21875C28.4564 9.21875 28.6242 9.25216 28.7808 9.31707C28.9373 9.38198 29.0795 9.47712 29.1993 9.59704L31.9343 12.3328C32.0542 12.4526 32.1493 12.5948 32.2142 12.7514C32.2791 12.908 32.3125 13.0759 32.3125 13.2454C32.3125 13.4149 32.2791 13.5827 32.2142 13.7393C32.1493 13.8959 32.0542 14.0381 31.9343 14.1579L29.2006 16.8924L29.1993 16.8937Z" fill="white"/>
</svg>
