<svg width="5" height="9" viewBox="0 0 5 9" fill="none" xmlns="http://www.w3.org/2000/svg">
<path d="M5 4.02911C4.99746 4.11145 4.97971 4.18673 4.94673 4.25496C4.91375 4.32318 4.86301 4.38906 4.79452 4.45258L0.981735 7.8756C0.872653 7.97676 0.738204 8.02734 0.578387 8.02734C0.471842 8.02734 0.375444 8.00382 0.289194 7.95677C0.200406 7.90971 0.130644 7.84619 0.0799088 7.76621C0.0266361 7.68622 0 7.59682 0 7.49801C0 7.35215 0.0596147 7.22393 0.178843 7.11336L3.62633 4.03264L0.178843 0.948385C0.0596147 0.83546 0 0.707243 0 0.563735C0 0.462574 0.0266361 0.371999 0.0799088 0.29201C0.130644 0.212022 0.200406 0.148502 0.289194 0.10145C0.375444 0.0520458 0.471842 0.0273438 0.578387 0.0273438C0.738204 0.0273438 0.872653 0.0791006 0.981735 0.182615L4.79452 3.60564C4.86555 3.66916 4.91755 3.73503 4.95053 3.80326C4.98351 3.87384 5 3.94912 5 4.02911Z" fill="#5E4DB0"/>
</svg>
