<svg width="12" height="16" viewBox="0 0 12 16" fill="none" xmlns="http://www.w3.org/2000/svg">
<path d="M6.7826 2.72963V5.06522H10.6989C11.4175 5.06522 12 5.6486 12 6.36569V14.1995C12 14.9178 11.4179 15.5 10.6989 15.5H1.56201C0.843407 15.5 0.260864 14.9166 0.260864 14.1995V6.36569C0.260864 5.64746 0.84301 5.06522 1.56201 5.06522H5.47826V2.72752L4.74165 3.46412C4.48931 3.71647 4.08006 3.71634 3.82359 3.45987C3.5689 3.20518 3.5704 2.79074 3.81934 2.54181L5.67247 0.688679C5.79794 0.563206 5.96221 0.500155 6.1272 0.5L6.13218 0.501947C6.29781 0.5023 6.4625 0.564903 6.58628 0.688679L8.43941 2.54181C8.69175 2.79415 8.69162 3.20341 8.43516 3.45987C8.18047 3.71456 7.76603 3.71306 7.5171 3.46412L6.7826 2.72963ZM5.47826 6.36957H1.56521V14.1957H10.6956V6.36957H6.7826V8.97924C6.7826 9.33888 6.49313 9.63043 6.13043 9.63043C5.77025 9.63043 5.47826 9.33859 5.47826 8.97924V6.36957ZM3.52173 5.06522V6.36957H8.73913V5.06522H3.52173ZM5.47826 5.06522H6.7826V6.36957H5.47826V5.06522Z" fill="#8B8B8B"/>
</svg>
